<?xml version="1.0" standalone="no"?><!DOCTYPE svg PUBLIC "-//W3C//DTD SVG 1.1//EN" "http://www.w3.org/Graphics/SVG/1.1/DTD/svg11.dtd"><svg class="icon" width="200px" height="200.00px" viewBox="0 0 1024 1024" version="1.1" xmlns="http://www.w3.org/2000/svg"><path d="M38.4 57.33m315.06 0l269.88 0q315.06 0 315.06 315.06l0 269.88q0 315.06-315.06 315.06l-269.88 0q-315.06 0-315.06-315.06l0-269.88q0-315.06 315.06-315.06Z" fill="#FFD4B7" /><path d="M705.65 392.76c0.92 0.72 1.76 1.37 1.74 1.34a7.14 7.14 0 0 0-1.74-1.34zM754.21 767.68c-0.72 0.91-1.37 1.76-1.34 1.74a7.35 7.35 0 0 0 1.34-1.74z" fill="#606060" /><path d="M264.4 773.72c33.52 55.15 83.83 101 142.79 127.62a342.31 342.31 0 0 0 102.41 28.22 297.4 297.4 0 0 0 32.94 2 339.07 339.07 0 0 0 70-6.89c63.84-12.87 123.84-46.54 168.83-93.53 45.16-47.16 76.72-108.31 86.68-173a358 358 0 0 0 4.55-53.6c-0.19-66.65-20.6-133.54-59.45-187.87A334.25 334.25 0 0 0 655.81 296.6a315.65 315.65 0 0 0-80.33-17.85v-56.42h29.06c15.69 0 30.72-13.8 30-30s-13.18-30-30-30H550.2a25.29 25.29 0 0 0-4.19-0.25h-1.68q-1.37 0.06-2.7 0.24H496c-15.69 0-30.72 13.8-30 30s13.18 30 30 30h18.3v56.48a326.11 326.11 0 0 0-59.31 11C392.63 307.5 335 344.4 293.74 394.51a332.39 332.39 0 0 0-75.53 186.25c-5.28 66.85 11.37 135.68 46.19 192.96z m315.84-434.13a300.27 300.27 0 0 1 67.82 18.49 299.23 299.23 0 0 1 36.34 19q9.23 5.65 18 12 2.4 1.73 4.75 3.49h0.05c2.59 2.07 5.17 4.15 7.7 6.29a299.16 299.16 0 0 1 31.24 30.63q3.45 3.93 6.78 8l1.53 1.91c-0.85-1.09 0.54 0.61 1.5 1.85l0.25 0.32c0.54 0.68 1.07 1.38 1.61 2.06l-1.39-1.74q6.64 8.79 12.58 18.11a299.3 299.3 0 0 1 21.82 41 300.13 300.13 0 0 1 18.42 67.66 299.17 299.17 0 0 1 0 71.77 300.44 300.44 0 0 1-18.49 67.84 301.33 301.33 0 0 1-19 36.34q-5.67 9.23-12 18c-1.15 1.59-2.31 3.18-3.49 4.75-2.07 2.58-4.14 5.16-6.29 7.69a298.28 298.28 0 0 1-30.63 31.25q-3.93 3.45-8 6.77c-0.63 0.52-1.27 1-1.9 1.53 1.08-0.84-0.62 0.55-1.86 1.5l-0.32 0.25c-0.68 0.55-1.37 1.08-2.06 1.62l1.8-1.37q-8.84 6.61-18.15 12.56a299.3 299.3 0 0 1-41 21.82 300.46 300.46 0 0 1-67.65 18.43 304.62 304.62 0 0 1-35.32 2.11H544a306.52 306.52 0 0 0 34.38-2.11A300.46 300.46 0 0 0 646 851a299.3 299.3 0 0 0 41-21.82q9.32-5.94 18.16-12.56L703.4 818l2.06-1.62 0.31-0.25c1.24-1 2.94-2.34 1.86-1.5 0.63-0.51 1.27-1 1.9-1.53q4.05-3.32 8-6.77a298.38 298.38 0 0 0 30.64-31.25c2.14-2.53 4.21-5.11 6.28-7.69 1.18-1.57 2.34-3.16 3.49-4.75q6.31-8.79 12-18a301.33 301.33 0 0 0 19-36.34 300.46 300.46 0 0 0 18.5-67.84 300.55 300.55 0 0 0 0-71.77A300.68 300.68 0 0 0 789 501a299.3 299.3 0 0 0-21.82-41q-5.94-9.32-12.56-18.15c0.39 0.5 0.85 1.07 1.39 1.74-0.55-0.68-1.08-1.38-1.62-2.06l-0.25-0.32c-1-1.24-2.35-2.94-1.5-1.85l-1.53-1.91a363 363 0 0 0-6.78-8 299.16 299.16 0 0 0-31.24-30.63c-2.53-2.14-5.11-4.22-7.7-6.29h-0.05q-2.35-1.77-4.75-3.49-8.79-6.31-18-12a299.23 299.23 0 0 0-36.34-19 300.13 300.13 0 0 0-67.82-18.49 304.17 304.17 0 0 0-34.43-2.07h0.93a306.86 306.86 0 0 1 35.31 2.11z" fill="#606060" /><path d="M753.39 595.38a300.46 300.46 0 0 1-18.5 67.84 301.33 301.33 0 0 1-19 36.34q-5.67 9.23-12 18c-1.15 1.59-2.31 3.18-3.49 4.75-2.07 2.58-4.14 5.16-6.28 7.69a298.38 298.38 0 0 1-30.64 31.25q-3.91 3.45-8 6.77c-0.63 0.52-1.27 1-1.9 1.53 1.08-0.84-0.62 0.55-1.86 1.5l-0.31 0.25-2.01 1.7 1.74-1.39q-8.85 6.61-18.16 12.56A299.3 299.3 0 0 1 592 806a300.46 300.46 0 0 1-67.65 18.43 305.74 305.74 0 0 1-71.8 0 300.29 300.29 0 0 1-67.82-18.5 298.36 298.36 0 0 1-36.33-19q-9.23-5.66-18-12c-1.6-1.14-3.18-2.31-4.76-3.48-2.59-2.06-5.17-4.14-7.7-6.28a299.18 299.18 0 0 1-31.24-30.63q-3.46-3.93-6.78-8l-1.53-1.91c0.85 1.09-0.54-0.61-1.5-1.86-0.08-0.1-0.17-0.2-0.25-0.31-0.54-0.68-1.07-1.38-1.62-2.06l1.39 1.74q-6.62-8.83-12.56-18.15A299.41 299.41 0 0 1 242 663a300.37 300.37 0 0 1-18.43-67.64 305.74 305.74 0 0 1 0-71.8 300.29 300.29 0 0 1 18.5-67.82 299.17 299.17 0 0 1 19-36.34q5.67-9.22 12-18c1.14-1.6 2.31-3.18 3.49-4.75v-0.05c2.07-2.59 4.14-5.17 6.28-7.7a300.16 300.16 0 0 1 30.63-31.24q3.93-3.45 8-6.77l1.9-1.54c-1.08 0.85 0.62-0.54 1.86-1.49l0.31-0.26 2.06-1.61-1.74 1.39q8.85-6.61 18.15-12.57a300 300 0 0 1 41-21.82 299.83 299.83 0 0 1 67.64-18.42 304.67 304.67 0 0 1 71.8 0 300.13 300.13 0 0 1 67.82 18.49 299.23 299.23 0 0 1 36.34 19q9.22 5.65 18 12 2.4 1.73 4.75 3.49h0.05c2.59 2.07 5.17 4.15 7.7 6.29a299.16 299.16 0 0 1 31.24 30.63c2.31 2.62 4.56 5.27 6.78 8l1.53 1.91c-0.85-1.09 0.54 0.61 1.5 1.85l0.25 0.32c0.54 0.68 1.07 1.38 1.62 2.06-0.54-0.67-1-1.24-1.39-1.74q6.6 8.84 12.56 18.15A299.3 299.3 0 0 1 735 456a300.68 300.68 0 0 1 18.43 67.66 300.55 300.55 0 0 1 0 71.77z" fill="#F8E9AC" /><path d="M481 381.3v163.93c0 9.65 15 9.66 15 0V381.3c0-9.66-15-9.67-15 0zM481 777.36v66.19c0 9.65 15 9.67 15 0v-66.19c0-9.66-15-9.67-15 0zM481 279.91v66.19c0 9.66 15 9.67 15 0v-66.19c0-9.65-15-9.67-15 0zM271.34 549h-66.19c-9.66 0-9.67 15 0 15h66.19c9.65 0 9.67-15 0-15zM768.78 549h-66.19c-9.65 0-9.67 15 0 15h66.19c9.65 0 9.67-15 0-15zM322.86 710l-46.81 46.8c-6.83 6.84 3.77 17.44 10.61 10.61l46.8-46.81c6.84-6.83-3.77-17.44-10.6-10.6zM674.6 358.21L627.8 405c-6.84 6.84 3.77 17.45 10.6 10.61l46.81-46.8c6.83-6.84-3.77-17.45-10.61-10.61zM336.09 400.28l-46.81-46.81c-6.83-6.83-17.44 3.77-10.61 10.61l46.81 46.8c6.83 6.84 17.44-3.77 10.61-10.6zM687.83 752L641 705.22c-6.84-6.84-17.45 3.77-10.61 10.6l46.81 46.81c6.83 6.83 17.44-3.77 10.6-10.61z" fill="#231815" /><path d="M653.39 349.1s-0.82-0.62-1.74-1.34a7.14 7.14 0 0 1 1.74 1.34zM278.08 394.58s-0.63 0.82-1.34 1.74a7.1 7.1 0 0 1 1.34-1.74zM323.55 769.9s0.83 0.62 1.74 1.34a7.85 7.85 0 0 1-1.74-1.34zM698.87 724.42s0.62-0.83 1.34-1.74a7.35 7.35 0 0 1-1.34 1.74zM700.45 396.67l-0.35-0.47-1.5-1.85c0.31 0.4 0.93 1.18 2 2.49zM276.5 722.33c0.1 0.14 0.22 0.3 0.35 0.46 0.49 0.63 1 1.24 1.5 1.86-0.32-0.4-0.93-1.18-2-2.49zM651.3 771.48l0.47-0.36 1.86-1.5-2.49 2zM325.64 347.52l-0.46 0.36c-0.63 0.49-1.24 1-1.86 1.49l2.49-2z" fill="#060404" /><path d="M488.25 558.05m-37.2 0a37.2 37.2 0 1 0 74.4 0 37.2 37.2 0 1 0-74.4 0Z" fill="#060203" /><path d="M758 371.67A334.25 334.25 0 0 0 600.66 251.6a315.75 315.75 0 0 0-80.33-17.85v-56.42h29c15.7 0 30.73-13.8 30-30s-13.18-30-30-30H495a25.38 25.38 0 0 0-4.71-0.24q-1.36 0.06-2.7 0.24H442c-15.69 0-30.72 13.8-30 30s13.18 30 30 30h18.3v56.47a326.11 326.11 0 0 0-59.31 11C338.63 262.5 281 299.4 239.74 349.51a332.39 332.39 0 0 0-75.53 186.25c-5.28 66.85 11.37 135.68 46.19 193 33.52 55.15 83.83 101 142.79 127.62a342.31 342.31 0 0 0 102.41 28.18c33.89 4 68.34 1.81 101.76-4.93 63.84-12.87 123.84-46.54 168.83-93.53 45.15-47.16 76.71-108.31 86.67-173a356.68 356.68 0 0 0 4.55-53.6c-0.15-66.61-20.56-133.5-59.41-187.83z m-2.75 223.71a300.44 300.44 0 0 1-18.49 67.84 301.33 301.33 0 0 1-19 36.34q-5.67 9.23-12 18c-1.15 1.59-2.31 3.18-3.49 4.75-2.07 2.58-4.15 5.16-6.29 7.69a298.28 298.28 0 0 1-30.63 31.25q-3.93 3.45-8 6.77c-0.63 0.52-1.27 1-1.9 1.53 1.08-0.84-0.62 0.55-1.86 1.5l-0.32 0.25c-0.68 0.55-1.37 1.08-2.06 1.62l1.79-1.32q-8.84 6.61-18.15 12.56a299.3 299.3 0 0 1-41 21.82 300.46 300.46 0 0 1-67.65 18.43 305.74 305.74 0 0 1-71.8 0 300.29 300.29 0 0 1-67.82-18.5 297.63 297.63 0 0 1-36.33-19q-9.23-5.66-18-12c-1.59-1.14-3.18-2.31-4.75-3.48-2.59-2.06-5.17-4.14-7.7-6.28a298.21 298.21 0 0 1-31.24-30.63q-3.46-3.93-6.78-8c-0.52-0.64-1-1.28-1.54-1.91 0.85 1.09-0.53-0.61-1.49-1.86-0.08-0.1-0.17-0.2-0.25-0.31-0.55-0.68-1.07-1.38-1.62-2.06l1.39 1.74q-6.62-8.83-12.56-18.15a299.41 299.41 0 0 1-21.82-41 300.37 300.37 0 0 1-18.43-67.64 305.74 305.74 0 0 1 0-71.8 300.29 300.29 0 0 1 18.5-67.82 299.17 299.17 0 0 1 19-36.34q5.67-9.22 12-18c1.14-1.6 2.31-3.18 3.48-4.75v-0.05c2.06-2.59 4.14-5.17 6.28-7.7a300.16 300.16 0 0 1 30.63-31.24q3.93-3.45 8-6.77l1.9-1.54c-1.09 0.85 0.62-0.54 1.86-1.49l0.31-0.26 2.06-1.61-1.74 1.39q8.83-6.61 18.15-12.57a299.41 299.41 0 0 1 41-21.82 299.83 299.83 0 0 1 67.64-18.42 304.67 304.67 0 0 1 71.8 0 300.27 300.27 0 0 1 67.82 18.49 299.23 299.23 0 0 1 36.34 19q9.23 5.65 18 12 2.4 1.73 4.75 3.49h0.05c2.59 2.07 5.17 4.15 7.7 6.29a299.16 299.16 0 0 1 31.24 30.63q3.45 3.93 6.78 8l1.53 1.91c-0.85-1.09 0.54 0.61 1.5 1.85l0.25 0.32c0.54 0.68 1.07 1.38 1.61 2.06l-1.39-1.74q6.55 8.84 12.49 18.16a299.3 299.3 0 0 1 21.82 41 300.13 300.13 0 0 1 18.42 67.66 299.17 299.17 0 0 1 0 71.77z" fill="#68BCAC" /><path d="M765.63 367.88c-42.78-59.49-103.38-105-173.32-127.47a330.77 330.77 0 0 0-70.83-14.16l7.5 7.5v-56.42l-7.5 7.5h23.25c6.39 0 12.53-0.09 18.57-2.41 11-4.24 20.14-13.36 23.46-24.81 6.67-23-11.63-46.5-34.83-47.75-15.25-0.83-30.76 0-46 0H463c-13.34 0-27.46-1.71-39.32 5.68-10.1 6.29-17.25 17-18 29-0.76 12.65 5.46 25.37 15.46 33 11.83 9 26.28 7.37 40.3 7.37l-7.5-7.5v56.39l7.5-7.5a332.84 332.84 0 0 0-267.18 180.47c-25.61 50-38.89 106.57-37.22 162.8a334.83 334.83 0 0 0 162.52 277A339.1 339.1 0 0 0 490.45 894a334 334 0 0 0 286.18-159.52c30.42-49.33 46.77-105.61 49.18-163.48 2.41-57.66-11.38-116.49-38.22-167.5a313.36 313.36 0 0 0-22-35.66c-5.55-7.8-18.56-0.31-13 7.57 64.59 90.81 76.55 214.32 30.1 315.77-22.11 48.27-56.07 91.33-98.56 123.28a321.37 321.37 0 0 1-146.63 61.25c-59.46 8.72-121-0.24-176-24.36-46.92-20.57-88-52.87-120-92.79-34.35-42.82-56.82-94.49-65.64-148.61-8.71-53.45-2.81-108.81 15.66-159.63 36.33-100 121.91-176.85 225.4-201.65a321.66 321.66 0 0 1 44.57-7.37c4-0.38 7.5-3.13 7.5-7.5v-56.47a7.6 7.6 0 0 0-7.5-7.5c-9.24 0-20.66 2-29.05-2.83a24.14 24.14 0 0 1-11.62-18c-1-8.33 3.44-16.19 10.46-20.55 8.78-5.46 19.89-3.63 29.76-3.63h72c9.52 0 20.89-2 29.31 3.48A24.25 24.25 0 0 1 573 146.65c0.72 9.44-5.66 17.94-14.19 21.51-5.12 2.15-10.59 1.67-16 1.67h-21.33a7.61 7.61 0 0 0-7.5 7.5v56.42c0 4.33 3.46 7.12 7.5 7.5 72.45 6.74 141.12 39.27 193.14 90a336 336 0 0 1 38.06 44.2c2.38 3.32 6.5 4.83 10.26 2.7 3.27-1.87 5.06-6.99 2.69-10.27z" fill="#231815" /><path d="M749.18 593.39c-5.29 34.49-16.12 67.45-33.83 97.58-16.63 28.32-38.14 52.6-64 73.35-6.57 5.27 2.28 16.92 9.09 11.78l0.34-0.26-9.09-11.78c-1.5 1.24-3.05 2.43-4.57 3.63l10.6 10.6 1.74-1.39c6.59-5.25-2.24-16.86-9.09-11.78-43.13 32.07-94.23 51.83-148.18 53.72a263.07 263.07 0 0 1-153.07-42.21c-23.6-15.3-44.55-35-62.45-57.28-5.27-6.57-16.92 2.28-11.78 9.09l0.26 0.34 11.78-9.09c-1.24-1.5-2.42-3-3.62-4.57l-10.61 10.6 1.39 1.74c5.26 6.59 16.87-2.24 11.78-9.08-32.07-43.13-51.82-94.24-53.72-148.19a263.15 263.15 0 0 1 42.22-153.07c15.29-23.6 35-44.55 57.28-62.44 6.57-5.28-2.28-16.92-9.09-11.78l-0.34 0.25 9.08 11.78c1.5-1.24 3.05-2.42 4.58-3.62l-10.61-10.61-1.74 1.39c-6.58 5.26 2.25 16.87 9.09 11.78 43.13-32.06 94.23-51.82 148.19-53.71a263 263 0 0 1 153.06 42.21c23.6 15.29 44.56 35 62.45 57.28 5.27 6.57 16.92-2.28 11.78-9.09l-0.26-0.34-11.78 9.09c1.24 1.49 2.42 3 3.63 4.57l10.6-10.61-1.39-1.74c-5.25-6.58-16.87 2.25-11.78 9.09 20.58 27.68 36.1 58.16 45.07 91.51 9.09 33.82 10.73 68.51 6.72 103.25-0.47 4 3.78 7.5 7.5 7.5 4.44 0 7-3.45 7.5-7.5 4.16-36 2.17-72.18-7.26-107.24-9.28-34.52-25.26-66.42-46.58-95.09l-11.77 9.09 1.39 1.74c2.54 3.19 7.93 2.61 10.6 0 3.18-3.11 2.49-7.44 0-10.61-1.2-1.52-2.38-3.07-3.62-4.57-5.37-6.48-16.92 2.27-11.78 9.09l0.26 0.34 11.78-9.13c-33.75-42.06-79.19-74.28-130.65-90.75a278.05 278.05 0 0 0-167.68-0.59c-30.19 9.43-58.2 24.37-83.55 43.22l9.09 11.78 1.74-1.39c3.19-2.55 2.61-7.94 0-10.61-3.11-3.18-7.44-2.49-10.61 0-1.53 1.21-3.07 2.39-4.57 3.63-6.49 5.36 2.27 16.92 9.09 11.78l0.34-0.26-9.13-11.74c-42.06 33.75-74.28 79.19-90.75 130.64a278.08 278.08 0 0 0-0.59 167.69c9.43 30.18 24.37 58.2 43.22 83.55l11.78-9.09-1.39-1.74c-2.55-3.19-7.94-2.61-10.61 0-3.18 3.11-2.49 7.44 0 10.6 1.2 1.53 2.39 3.08 3.62 4.58 5.37 6.48 16.93-2.28 11.78-9.09l-0.26-0.35-11.74 9.14c33.76 42.07 79.19 74.28 130.65 90.75a278.16 278.16 0 0 0 167.69 0.6c30.18-9.43 58.19-24.38 83.54-43.22l-9.08-11.78c-0.59 0.46-1.17 0.92-1.74 1.39-3.19 2.55-2.61 7.94 0 10.6 3.11 3.18 7.44 2.49 10.6 0 1.53-1.2 3.08-2.38 4.58-3.62 6.48-5.37-2.27-16.92-9.09-11.78l-0.34 0.26 9.13 11.73a279.92 279.92 0 0 0 66.35-76.39c18.32-31.19 29.86-65.44 35.33-101.16 0.62-4-1-8-5.24-9.23-3.58-1.01-8.65 1.24-9.26 5.24z" fill="#231815" /></svg>