<?xml version="1.0" standalone="no"?><!DOCTYPE svg PUBLIC "-//W3C//DTD SVG 1.1//EN" "http://www.w3.org/Graphics/SVG/1.1/DTD/svg11.dtd"><svg class="icon" width="200px" height="200.00px" viewBox="0 0 1024 1024" version="1.1" xmlns="http://www.w3.org/2000/svg"><path d="M954.88 237.056H69.12a43.52 43.52 0 1 1 0-87.04h885.248c24.064 0 43.52 19.456 43.52 43.52s-18.944 43.52-43.008 43.52zM954.88 555.52H69.12a43.52 43.52 0 1 1 0-87.04h885.248c24.064 0 43.52 19.456 43.52 43.52s-18.944 43.52-43.008 43.52zM954.88 874.496H69.12a43.52 43.52 0 1 1 0-87.04h885.248c24.064 0 43.52 19.456 43.52 43.52 0.512 24.064-18.944 43.52-43.008 43.52z"  /></svg>